# xmcd
#
# Track frame offsets:
#	150
#	11497
#	32185
#	49560
#	76725
#	93465
#	110657
#	131776
#	148673
#	169335
#	192070
#	216285
#
# Disc length: 3240 seconds
#
# Revision: 1
# Processed by: cddbd v1.5.2PL0 Copyright (c) Steve Scherf et al.
# Submitted via: audiograbber 1.83.01
#
DISCID=a40ca60c
DTITLE=Piùbestialcheblues - Doppio Live CD 1
DYEAR=2003
DGENRE=Blues
TTITLE0=The House Is Rockin'
TTITLE1=She Caught the Katy
TTITLE2=Sitting on Top of the World
TTITLE3=Such a Night
TTITLE4=Iko Iko
TTITLE5=Have a Little Faith in Me
TTITLE6=Jealous Guy
TTITLE7=I Got a Woman
TTITLE8=The Letter
TTITLE9=Suspicious Minds
TTITLE10=I've Been Loving You Too Long
TTITLE11=Mannish Boy
EXTD=
EXTT0=
EXTT1=
EXTT2=
EXTT3=
EXTT4=
EXTT5=
EXTT6=
EXTT7=
EXTT8=
EXTT9=
EXTT10=
EXTT11=
PLAYORDER=
